<?xml version="1.0" encoding="utf-8"?>
<!-- Generator: Adobe Illustrator 15.1.0, SVG Export Plug-In . SVG Version: 6.00 Build 0)  -->
<!DOCTYPE svg PUBLIC "-//W3C//DTD SVG 1.1//EN" "http://www.w3.org/Graphics/SVG/1.1/DTD/svg11.dtd">
<svg version="1.1" id="Layer_1" xmlns="http://www.w3.org/2000/svg" xmlns:xlink="http://www.w3.org/1999/xlink" x="0px" y="0px"
	 width="176px" height="176px" viewBox="0 0 176 176" enable-background="new 0 0 176 176" xml:space="preserve">
<path fill="#FFFFFF" d="M58.933,98.608c0-3.012,0.877-4.538,2.609-4.538c1.744,0,2.628,1.526,2.628,4.538v14.428
	c0,3.041-0.858,4.52-2.628,4.52c-1.732,0-2.609-1.52-2.609-4.52V98.608z M61.542,88.071c-6.734,0-10.147,4.113-10.147,12.225v11.22
	c0,7.864,3.509,12.022,10.147,12.022c6.652,0,10.168-4.216,10.168-12.188v-11.054C71.71,92.184,68.29,88.071,61.542,88.071"/>
<polygon fill="#FFFFFF" points="86.279,88.701 85.884,89.096 85.884,104.604 79.317,88.942 78.954,88.701 74.094,88.701 
	73.7,89.096 73.7,122.494 74.094,122.888 79.899,122.888 80.293,122.494 80.293,106.041 86.839,122.639 87.206,122.888 
	91.879,122.888 92.272,122.494 92.272,89.096 91.879,88.701 "/>
<polygon fill="#FFFFFF" points="95.085,88.719 94.691,89.112 94.691,122.494 95.085,122.888 101.835,122.888 102.229,122.494 
	102.229,89.112 101.835,88.719 "/>
<polygon fill="#FFFFFF" points="117.227,88.701 116.832,89.096 116.832,104.604 110.265,88.942 109.902,88.701 105.042,88.701 
	104.648,89.096 104.648,122.494 105.042,122.888 110.848,122.888 111.242,122.494 111.242,106.041 117.787,122.639 118.153,122.888 
	122.826,122.888 123.22,122.494 123.22,89.096 122.826,88.701 "/>
<path fill="#FFFFFF" d="M145.282,104.927h-10.571l-0.394,0.394v4.84l0.394,0.396h3.428v2.276c0,3.123-0.903,4.704-2.686,4.704
	c-1.819,0-2.702-1.477-2.702-4.519V98.608c0-1.121,0-4.538,2.702-4.538c2.377,0,2.703,2.475,2.703,5.15v2.336l0.395,0.396h6.453
	l0.394-0.396v-1.966c0-7.536-3.438-11.521-9.944-11.521c-6.796,0-10.242,4.114-10.242,12.228v11.754
	c0,5.3,2.333,11.484,8.907,11.484c2.084,0,4.262-1.023,5.555-2.556l0.602,1.648l0.372,0.259h4.636l0.394-0.394V105.32
	L145.282,104.927z"/>
<polygon fill="#FFFFFF" points="54.137,125.814 53.793,126.125 52.411,140.128 50.625,126.115 50.283,125.814 46.444,125.814 
	46.102,126.115 44.284,140.187 42.963,126.127 42.62,125.814 38.161,125.814 37.819,126.206 41.401,152.089 41.743,152.387 
	46.214,152.387 46.556,152.086 48.346,137.843 50.17,152.086 50.514,152.387 54.985,152.387 55.327,152.089 58.951,126.208 
	58.609,125.814 "/>
<polygon fill="#FFFFFF" points="60.61,125.814 60.265,126.16 60.265,152.041 60.61,152.387 65.844,152.387 66.188,152.041 
	66.188,126.16 65.844,125.814 "/>
<polygon fill="#FFFFFF" points="74.5,148.103 74.5,126.16 74.156,125.814 68.922,125.814 68.577,126.16 68.577,152.041 
	68.922,152.387 79.304,152.387 79.648,152.041 79.648,148.446 79.304,148.103 "/>
<polygon fill="#FFFFFF" points="87.342,148.103 87.342,126.16 86.998,125.814 81.763,125.814 81.418,126.16 81.418,152.041 
	81.763,152.387 92.145,152.387 92.489,152.041 92.489,148.446 92.145,148.103 "/>
<polygon fill="#FFFFFF" points="94.604,125.814 94.259,126.16 94.259,152.041 94.604,152.387 105.403,152.387 105.748,152.041 
	105.748,148.446 105.403,148.103 100.183,148.103 100.183,140.825 103.777,140.825 104.122,140.481 104.122,136.8 103.777,136.455 
	100.183,136.455 100.183,130.1 105.403,130.1 105.748,129.754 105.748,126.16 105.403,125.814 "/>
<path fill="#FFFFFF" d="M119.983,125.814l-0.34,0.285l-2.623,15.212l-2.435-15.208l-0.34-0.289h-6.269l-0.347,0.346v25.881
	l0.347,0.346h3.868l0.345-0.342l0.09-14.455l2.519,14.511l0.34,0.286h3.911l0.339-0.294c0.425-2.793,0.978-5.995,1.511-9.094
	c0.286-1.662,0.576-3.352,0.851-4.996l0.09,14.042l0.344,0.342h3.854l0.345-0.346V126.16l-0.345-0.346H119.983z"/>
<polygon fill="#FFFFFF" points="137.759,125.814 132.524,125.814 132.181,126.16 132.181,152.041 132.524,152.387 137.759,152.387 
	138.104,152.041 138.104,126.16 "/>
<path fill="#FFFFFF" d="M58.809,155.161c-3.521,0-5.307,2.163-5.307,6.432v5.778c0,4.194,1.835,6.412,5.307,6.412
	c3.294,0,5.068-2.173,5.132-6.283l0.01-1.475l-0.247-0.249h-3.452l-0.247,0.247v1.795c0.005,0.477,0.015,1.925-0.548,2.492
	c-0.17,0.172-0.383,0.255-0.649,0.255c-0.318,0-1.286,0-1.286-2.322v-7.532c0-1.549,0.433-2.332,1.286-2.332
	c1.035,0,1.178,1.316,1.178,2.739v1.609l0.247,0.245h3.47l0.247-0.245v-1.503C63.951,157.259,62.172,155.161,58.809,155.161"/>
<path fill="#FFFFFF" d="M71.958,168.253c0,1.563-0.437,2.322-1.334,2.322c-0.878,0-1.324-0.78-1.324-2.322v-7.542
	c0-1.549,0.445-2.332,1.324-2.332c0.885,0,1.334,0.783,1.334,2.332V168.253z M70.624,155.161c-3.547,0-5.346,2.163-5.346,6.432
	v5.865c0,4.137,1.849,6.325,5.346,6.325c3.503,0,5.355-2.218,5.355-6.412v-5.778C75.979,157.324,74.177,155.161,70.624,155.161"/>
<polygon fill="#FFFFFF" points="77.582,155.502 77.335,155.747 77.335,173.196 77.582,173.443 84.581,173.443 84.827,173.196 
	84.827,170.774 84.581,170.527 81.357,170.527 81.357,155.747 81.11,155.502 "/>
<polygon fill="#FFFFFF" points="86.237,155.502 85.99,155.747 85.99,173.196 86.237,173.443 93.235,173.443 93.481,173.196 
	93.481,170.774 93.235,170.527 90.012,170.527 90.012,155.747 89.765,155.502 "/>
<polygon fill="#FFFFFF" points="94.892,155.502 94.646,155.747 94.646,173.196 94.892,173.443 102.172,173.443 102.418,173.196 
	102.418,170.774 102.172,170.527 98.667,170.527 98.667,165.648 101.076,165.648 101.322,165.403 101.322,162.921 101.076,162.676 
	98.667,162.676 98.667,158.417 102.172,158.417 102.418,158.17 102.418,155.747 102.172,155.502 "/>
<path fill="#FFFFFF" d="M108.441,163.973l-0.246,0.247v2.531l0.246,0.247h1.75v1.146c0,1.606-0.458,2.421-1.361,2.421
	c-0.34,0-1.373,0-1.373-2.322v-7.532c0-2.332,1.033-2.332,1.373-2.332c0.975,0,1.372,0.769,1.372,2.652v1.22l0.247,0.247h3.372
	l0.247-0.247v-1.024c0-3.97-1.812-6.065-5.238-6.065c-3.58,0-5.395,2.165-5.395,6.432v6.146c0,2.788,1.23,6.044,4.696,6.044
	c1.077,0,2.201-0.517,2.89-1.299l0.291,0.797l0.231,0.162h2.424l0.246-0.247v-8.977l-0.246-0.247H108.441z"/>
<polygon fill="#FFFFFF" points="116.043,155.502 115.796,155.747 115.796,173.196 116.043,173.443 123.321,173.443 123.568,173.196 
	123.568,170.774 123.321,170.527 119.816,170.527 119.816,165.648 122.227,165.648 122.473,165.403 122.473,162.921 
	122.227,162.676 119.816,162.676 119.816,158.417 123.321,158.417 123.568,158.17 123.568,155.747 123.321,155.502 "/>
<polygon fill="#FFFFFF" points="30.046,26.033 29.51,26.518 27.117,50.758 24.027,26.503 23.493,26.033 16.965,26.033 
	16.431,26.502 13.283,50.866 10.996,26.521 10.46,26.033 2.88,26.033 2.347,26.645 8.435,70.659 8.969,71.123 16.573,71.123 
	17.107,70.652 20.197,46.054 23.35,70.653 23.884,71.123 31.488,71.123 32.021,70.659 38.184,26.646 37.651,26.033 "/>
<polygon fill="#FFFFFF" points="41.043,26.033 40.506,26.571 40.506,70.585 41.043,71.123 59.407,71.123 59.945,70.585 
	59.945,64.472 59.407,63.935 50.481,63.935 50.481,51.464 56.645,51.464 57.182,50.926 57.182,44.666 56.645,44.127 50.481,44.127 
	50.481,33.222 59.407,33.222 59.945,32.684 59.945,26.571 59.407,26.033 "/>
<polygon fill="#FFFFFF" points="72.216,63.935 72.216,26.571 71.678,26.033 62.778,26.033 62.239,26.571 62.239,70.585 
	62.778,71.123 80.432,71.123 80.97,70.585 80.97,64.472 80.432,63.935 "/>
<polygon fill="#FFFFFF" points="109.837,26.811 109.354,26.034 99.403,26.034 98.905,26.366 93.046,40.559 93.046,26.571 
	92.508,26.034 83.608,26.034 83.07,26.571 83.07,70.586 83.608,71.123 92.508,71.123 93.046,70.586 93.046,54.718 94.08,52.053 
	100.263,70.754 100.773,71.123 110.015,71.123 110.52,70.398 100.967,44.624 "/>
<path fill="#FFFFFF" d="M123.725,25.178c-8.892,0-13.4,5.429-13.4,16.138v14.794c0,10.382,4.635,15.869,13.4,15.869
	c8.782,0,13.424-5.563,13.424-16.089V41.315C137.148,30.606,132.632,25.178,123.725,25.178 M120.302,39.091
	c0-3.959,1.151-5.967,3.423-5.967c2.287,0,3.448,2.007,3.448,5.967v19.024c0,3.998-1.129,5.941-3.448,5.941
	c-2.271,0-3.423-2-3.423-5.941V39.091z"/>
<path fill="#FFFFFF" d="M171.987,26.033h-10.294l-0.53,0.446l-4.511,26.154l-4.185-26.147l-0.53-0.453h-10.661l-0.538,0.538v44.015
	l0.538,0.538h6.578l0.537-0.535l0.159-25.125l4.373,25.213l0.53,0.446h6.65l0.531-0.457c0.72-4.751,1.658-10.2,2.566-15.47
	c0.519-3.012,1.049-6.084,1.541-9.051l0.153,24.443l0.538,0.535h6.553l0.539-0.538V26.571L171.987,26.033z"/>
<rect x="47.651" y="74.269" fill="#FFFFFF" width="2.252" height="11.141"/>
<polygon fill="#FFFFFF" points="51.23,85.41 51.23,74.263 52.852,74.263 55.296,80.094 55.296,74.263 57.166,74.263 57.166,85.41 
	55.607,85.41 53.167,79.227 53.167,85.41 "/>
<polygon fill="#FFFFFF" points="60.213,85.41 60.213,74.269 62.465,74.269 62.465,78.836 64.082,78.836 64.082,74.269 
	66.347,74.269 66.347,85.41 64.082,85.41 64.082,80.439 62.465,80.439 62.465,85.41 "/>
<polygon fill="#FFFFFF" points="67.432,85.41 67.432,74.269 72.081,74.269 72.081,75.816 69.685,75.816 69.685,78.849 
	71.381,78.849 71.381,80.434 69.685,80.434 69.685,83.862 72.081,83.862 72.081,85.41 "/>
<polygon fill="#FFFFFF" points="74.774,85.41 74.774,75.953 73.14,75.953 73.14,74.269 78.629,74.269 78.629,75.953 77.026,75.953 
	77.026,85.41 "/>
<polygon fill="#FFFFFF" points="81.12,85.41 81.12,74.269 83.373,74.269 83.373,83.862 85.588,83.862 85.588,85.41 "/>
<path fill="#FFFFFF" d="M86.338,85.41l2.407-11.141h1.994l2.4,11.141h-2.221l-0.458-2.383h-1.455l-0.433,2.383H86.338z
	 M89.161,81.641h1.15l-0.563-4.134L89.161,81.641z"/>
<polygon fill="#FFFFFF" points="94.169,85.41 94.169,74.263 95.79,74.263 98.234,80.094 98.234,74.263 100.104,74.263 
	100.104,85.41 98.545,85.41 96.106,79.227 96.106,85.41 "/>
<path fill="#FFFFFF" d="M101.432,85.409V74.269h2.328c2.982,0,3.693,1.077,3.693,3.609v3.651c0,2.599-0.514,3.88-3.719,3.88H101.432
	z M103.684,83.831h0.051c1.15,0,1.466-0.068,1.466-1.064v-5.998c0-0.779-0.477-0.91-1.43-0.916h-0.087V83.831z"/>
<polygon fill="#FFFFFF" points="111.918,85.41 109.869,74.269 112.006,74.269 112.989,81.021 114.078,74.269 116.183,74.269 
	113.98,85.41 "/>
<path fill="#FFFFFF" d="M115.277,85.41l2.407-11.141h1.993l2.401,11.141h-2.222l-0.459-2.383h-1.454l-0.433,2.383H115.277z
	 M118.1,81.641h1.151l-0.563-4.134L118.1,81.641z"/>
<polygon fill="#FFFFFF" points="123.109,85.41 123.109,74.263 124.729,74.263 127.174,80.094 127.174,74.263 129.043,74.263 
	129.043,85.41 127.484,85.41 125.045,79.227 125.045,85.41 "/>
<polygon fill="#EF2B2D" points="74.795,2.009 68.064,22.822 81.527,22.822 "/>
<polygon fill="#EF2B2D" points="88.355,2.009 81.624,22.822 95.086,22.822 "/>
<polygon fill="#EF2B2D" points="101.91,2.009 95.178,22.822 108.641,22.822 "/>
<polygon fill="#FFFFFF" points="43.704,88.719 43.34,88.963 38.87,99.792 38.87,89.114 38.474,88.719 31.724,88.719 31.33,89.114 
	31.33,122.494 31.724,122.888 38.474,122.888 38.87,122.494 38.87,110.457 39.669,108.397 44.369,122.617 44.743,122.888 
	51.752,122.888 52.122,122.356 44.875,102.804 51.604,89.29 51.251,88.719 "/>
</svg>
